<svg height="401pt" viewBox="-16 0 401 401.15712" width="401pt" xmlns="http://www.w3.org/2000/svg"><path d="m355.386719 262.628906c24.066406-48.140625 8.566406-88.15625 7.890625-89.835937-1.21875-3.046875-4.457032-4.765625-7.632813-4.171875-3.214843.617187-5.53125 3.433594-5.53125 6.707031 0 5.871094-4.335937 14.605469-10.613281 24.054687 6.21875-20.289062 8.71875-37.3125 8.917969-38.753906 8.054687-88.613281-40.847657-105.96875-42.933594-106.660156-2.152344-.742188-4.519531-.328125-6.324219 1.066406-1.800781 1.386719-2.792968 3.574219-2.648437 5.839844 1.894531 29.5-3.472657 53.195312-9.339844 69.558594v-38.679688c0-8.496094-.648437-15.441406-2.039063-21.859375-15.046874-69.09375-88.292968-69.894531-89.035156-69.894531-2.367187 0-4.558594 1.226562-5.804687 3.238281-1.246094 2.011719-1.359375 4.527344-.300781 6.640625 17.941406 35.875 16.199218 135.261719 15.246093 164.867188-.378906 11.722656-2.75 22.714844-7.058593 32.679687-2.960938 6.855469-6.472657 13.613281-10.441407 20.089844-1.007812 1.644531-2.234375 3.199219-3.378906 4.789063-1.132813-1.574219-2.210937-3.167969-3.199219-4.785157-.507812-.824219-1.003906-1.699219-1.507812-2.554687 2.828125-12.125 3.03125-23.148438 2.179687-32.097656-1.140625-11.980469-4.1875-21.746094-6.703125-28.113282 14.203125-3.867187 22.949219-9.480468 26.648438-17.039062 2.660156-5.441406 1.890625-10.808594.425781-13.742188-1.160156-2.3125-3.519531-3.773437-6.105469-3.773437h-32.972656c.511719-59.085938 5.949219-100.683594 15.773438-120.320313 1.058593-2.113281.945312-4.625-.300782-6.640625-1.242187-2.011719-3.441406-3.238281-5.808594-3.238281-.738281 0-73.984374.800781-89.03125 69.898438-1.394531 6.414062-2.039062 13.359374-2.039062 21.855468v38.679688c-5.867188-16.367188-11.234375-40.058594-9.339844-69.558594.144532-2.269531-.847656-4.453125-2.648437-5.84375-1.808594-1.390625-4.1875-1.804688-6.328125-1.066406-2.085938.695312-50.984375 18.046875-42.890625 107.007812.175781 1.246094 2.664062 18.167969 8.863281 38.394532-6.273438-9.449219-10.597656-18.167969-10.597656-24.042969 0-3.273438-2.320313-6.085938-5.535156-6.707031-3.171876-.59375-6.414063 1.128906-7.632813 4.175781-.675781 1.679687-16.175781 41.691406 7.894531 89.832031 8.730469 17.464844 19.546875 29.742188 29.878906 38.304688l-15.148437-2.164063c-3.050781-.414063-6.113281 1.285156-7.289063 4.199219-1.179687 2.914062-.222656 6.253906 2.324219 8.09375.679688.492187 68.265625 49.398437 88.386719 68.832031 13.582031 13.121094 37.519531 21.230469 60.519531 21.230469 4.152344 0 8.269531-.292969 12.289063-.835938 4.105468.554688 8.25.871094 12.390625.871094 23.90625 0 47.507812-8.839844 60.367187-21.257812 20.128906-19.441407 87.714844-68.347657 88.394532-68.839844 2.546874-1.839844 3.507812-5.179688 2.324218-8.09375-1.179687-2.914063-4.199218-4.613282-7.292968-4.199219l-15.144532 2.164063c10.335938-8.5625 21.148438-20.835938 29.882813-38.300782zm-180.039063-19.652344c-.941406.9375-2 1.839844-3.003906 2.757813.675781-1.414063 1.296875-2.8125 1.890625-4.210937.363281.488281.738281.96875 1.113281 1.453124zm-11.226562-89.660156c-2.148438.425782-3.949219 1.867188-4.863282 3.851563-.914062 1.992187-.8125 4.304687.265626 6.214843.832031 1.476563 15.09375 27.574219 6.398437 60.660157-.050781.15625-.089844.308593-.128906.472656-3.261719 12.121094-9.585938 25.164063-20.828125 38.28125-13.953125 16.269531-20.605469 31.984375-23.019532 46.171875-1.132812 5.683594-1.71875 11.515625-1.585937 17.445312.015625.683594.109375 1.347657.144531 2.027344-12.578125-24.265625-18.949218-60.335937 12.183594-103.144531.144531-.203125.277344-.40625.40625-.628906.59375-1.039063 14.445312-25.710938 3.417969-44.710938-6.546875-11.28125-19.945313-17.613281-39.886719-18.878906 2.867188-9.933594 12.042969-17.222656 22.878906-17.222656h68.386719c-2.605469 2.566406-8.867187 6.480469-23.769531 9.460937zm-67.015625-80.515625c9.605469-44.125 46.640625-55.332031 65.140625-58.179687-8.039063 23.753906-12.304688 62.578125-12.761719 115.582031h-29.980469c-9.1875 0-17.605468 3.339844-24.132812 8.855469v-47.304688c.003906-7.492187.554687-13.519531 1.734375-18.953125zm24.039062 297.273438c-13.445312-12.988281-45.859375-37.59375-67.875-53.933594l26.648438 3.804687c3.660156.515626 7.074219-1.960937 7.691406-5.605468.628906-3.648438-1.757813-7.121094-5.382813-7.847656-.355468-.074219-35.269531-7.5-56.507812-49.972657-10.828125-21.65625-12.574219-41.601562-11.667969-55.988281 12.886719 22.039062 35.546875 45.066406 39.027344 48.546875 2.53125 2.53125 6.601563 2.664063 9.300781.332031 2.707032-2.347656 3.140625-6.386718.984375-9.253906-21.632812-28.84375-29.257812-80.601562-29.292969-80.773438-4.898437-53.878906 12.667969-77.328124 24.261719-86.757812-.125 52.199219 20.070313 84.589844 24.027344 90.429688-.1875 1.515624-.3125 3.046874-.3125 4.613281 0 3.773437 3.050781 6.828125 6.824219 6.828125 13.066406 0 29.894531 2.132812 35.8125 12.277344 5.789062 9.925781-.265625 25.335937-3.285156 30.828124-48.027344 66.382813-15.871094 124.492188 11.585937 150 3.367187 5.234376 7.296875 10.152344 11.90625 14.566407.621094.589843 1.296875 1.082031 1.929687 1.640625-10.921874-3.265625-20.085937-8.328125-25.675781-13.734375zm165.523438-63.578125c-3.628907.726562-6.015625 4.199218-5.386719 7.847656.617188 3.644531 4.019531 6.125 7.691406 5.605469l26.648438-3.804688c-22.011719 16.339844-54.429688 40.945313-67.878906 53.9375-18.746094 18.097657-67.300782 27.214844-93.40625 2.21875-1.8125-1.730469-3.476563-3.570312-5.0625-5.464843.011718-1.558594-.472657-3.125-1.539063-4.40625-.921875-1.105469-15.199219-18.738282-13.351563-44.40625 1.453126-14.582032 7.625-28.191407 17.917969-38.941407 3.476563-3.625 7.359375-6.847656 11.5625-9.570312 15.8125-10.261719 27.429688-21.660157 35.515625-34.863281 4.300782-7.019532 8.117188-14.359376 11.335938-21.804688 4.992187-11.546875 7.738281-24.21875 8.167968-37.652344 1.160157-35.628906 2.003907-117.8125-12.234374-160.472656 18.480468 2.992188 55.640624 14.425781 65.140624 58.078125 1.179688 5.441406 1.734376 11.46875 1.734376 18.960937v68.253907c0 2.957031 1.90625 5.578125 4.71875 6.492187 2.792968.914063 5.894531-.078125 7.628906-2.480468 1.085937-1.484376 24.824218-34.867188 24.691406-91.394532 11.621094 9.425782 29.175781 32.800782 24.300781 86.414063-.074219.523437-7.699219 52.273437-29.335937 81.121093-2.152344 2.867188-1.71875 6.90625.988281 9.253907 2.699219 2.332031 6.765625 2.199219 9.300781-.332031 3.476563-3.480469 26.136719-26.507813 39.023438-48.546876.90625 14.394532-.839844 34.332032-11.664063 55.988282-21.082031 42.148437-55.097656 49.675781-56.507812 49.96875zm0 0"/><path d="m276.246094 260.136719c-3.378906-1.679688-7.46875-.324219-9.160156 3.050781-4.835938 9.664062-19.867188 23.144531-26.238282 28.355469-3.820312-4.585938-8.445312-8.457031-13.625-11.480469 10.40625-13.214844 30.964844-45.554688 25.4375-89.761719-.464844-3.738281-3.847656-6.375-7.621094-5.929687-3.738281.46875-6.394531 3.882812-5.925781 7.621094 5.386719 43.097656-17.980469 74.25-25.148437 82.667968-3.996094-1.003906-8.152344-1.59375-12.453125-1.59375-28.234375 0-51.199219 22.964844-51.199219 51.199219s22.964844 51.199219 51.199219 51.199219 51.199219-22.964844 51.199219-51.199219c0-7.535156-1.675782-14.671875-4.613282-21.121094.136719-.09375.296875-.128906.429688-.234375.945312-.757812 23.359375-18.792968 30.773437-33.617187 1.683594-3.371094.320313-7.472657-3.054687-9.15625zm-74.734375 101.679687c-20.699219 0-37.546875-16.847656-37.546875-37.546875 0-20.703125 16.847656-37.546875 37.546875-37.546875s37.546875 16.84375 37.546875 37.546875c0 20.699219-16.847656 37.546875-37.546875 37.546875zm0 0"/><path d="m143.484375 157.015625c0 3.769531-3.054687 6.824219-6.824219 6.824219-3.769531 0-6.828125-3.054688-6.828125-6.824219s3.058594-6.828125 6.828125-6.828125c3.769532 0 6.824219 3.058594 6.824219 6.828125zm0 0"/></svg>